<?xml version="1.0" encoding="UTF-8"?>
<svg id="Layer_2" data-name="Layer 2" xmlns="http://www.w3.org/2000/svg" viewBox="0 0 151.34 22.05">
  <defs>
    <style>
      .cls-1 {
        fill: #fff;
      }

      .cls-1, .cls-2 {
        stroke-width: 0px;
      }

      .cls-2 {
        fill: #ed2531;
      }
    </style>
  </defs>
  <g id="Layer_1-2" data-name="Layer 1">
    <g>
      <path class="cls-1" d="m28.08,13.33v8.72h-5.68V3.74c0-.46.14-.92.42-1.36.28-.44.63-.83,1.06-1.17.43-.34.9-.62,1.41-.82.51-.21,1.01-.31,1.5-.31h13.62v4.58h-11.02c-.34,0-.65.1-.92.29-.27.2-.4.56-.4,1.1v2.71h12.34v4.58h-12.34Z"/>
      <path class="cls-1" d="m48.37,13.33v8.72h-5.68V3.74c0-.46.14-.92.42-1.36.28-.44.63-.83,1.06-1.17.43-.34.9-.62,1.41-.82.51-.21,1.01-.31,1.5-.31h13.62v4.58h-11.02c-.34,0-.65.1-.92.29-.27.2-.4.56-.4,1.1v2.71h12.34v4.58h-12.34Z"/>
      <path class="cls-1" d="m62.98.08h5.68v21.97h-5.68V.08Z"/>
      <path class="cls-1" d="m76.6,16.08c0,.54.13.9.4,1.1.27.2.57.29.92.29h6.3c.29-.02.56-.14.8-.35.24-.21.37-.55.37-1.04v-1.9h5.68v4.21c0,.46-.14.92-.42,1.36-.28.44-.64.83-1.06,1.17-.43.34-.9.62-1.43.82-.53.21-1.02.31-1.48.31h-11.35c-.49,0-.99-.1-1.5-.31-.51-.21-.98-.48-1.41-.82-.43-.34-.78-.73-1.06-1.17-.28-.44-.42-.89-.42-1.36V3.74c0-.46.14-.92.42-1.36.28-.44.63-.83,1.06-1.17.43-.34.9-.62,1.41-.82.51-.21,1.01-.31,1.5-.31h11.35c.46,0,.96.1,1.48.31.52.21,1,.48,1.43.82.43.34.78.73,1.06,1.17.28.44.42.89.42,1.36v4.17h-5.68v-1.87c0-.49-.12-.84-.37-1.04-.24-.21-.51-.32-.8-.35h-6.3c-.34,0-.65.1-.92.29-.27.2-.4.56-.4,1.1v10.03Z"/>
      <path class="cls-1" d="m93.33,22.05h5.68v-13.9h-5.68v13.9Z"/>
      <path class="cls-1" d="m101.28.08h5.68v16c0,.54.13.9.4,1.1s.57.29.92.29h7.47V.08h5.68v21.97h-15.75c-.49,0-.99-.1-1.5-.31-.51-.21-.98-.48-1.41-.82-.43-.34-.78-.73-1.06-1.17-.28-.44-.42-.89-.42-1.36V.08Z"/>
      <path class="cls-1" d="m134.68,22.05V4.65h-5.31v17.39h-5.68V.08h23.25c.46,0,.96.1,1.48.31.52.21,1,.48,1.43.82.43.34.78.73,1.06,1.17.28.44.42.89.42,1.36v18.31h-5.68V6.04c0-.49-.12-.84-.37-1.04-.24-.21-.51-.32-.81-.35h-4.14v17.39h-5.68Z"/>
      <path class="cls-2" d="m99.01,0h-7.97c.06.04.12.09.17.13.57.45,1.05.98,1.43,1.57.45.71.68,1.46.69,2.25v1.44h5.68V0Z"/>
      <g>
        <path class="cls-1" d="m.04,18.77c.05.33.18.65.38.96.28.44.64.83,1.07,1.17.42.34.9.62,1.42.83.53.2,1.02.31,1.49.31h11.35c.49,0,.99-.11,1.5-.31.51-.21.98-.49,1.41-.83.43-.34.78-.73,1.06-1.17s.42-.89.42-1.35V3.73c0-.47-.14-.92-.42-1.36s-.63-.83-1.06-1.17c-.43-.34-.9-.62-1.41-.82-.51-.21-1.01-.31-1.5-.31H7.05s0,4.57,0,4.57h6.1c.34,0,.65.1.91.3.27.19.41.56.41,1.1v10.03c0,.54-.14.9-.41,1.1-.26.19-.57.29-.91.29h-6.3c-.29-.02-.56-.14-.8-.35-.25-.2-.37-.55-.37-1.04v-1.81S.04,18.77.04,18.77Z"/>
        <path class="cls-2" d="m5.68,12.32L0,16.85V3.73c0-.47.14-.92.42-1.36.28-.44.64-.83,1.07-1.17.42-.34.9-.62,1.42-.82.53-.21,1.02-.31,1.49-.31h1.28v12.25Z"/>
      </g>
    </g>
  </g>
</svg>